<svg width="200" height="200" viewBox="0 0 200 200" fill="none" xmlns="http://www.w3.org/2000/svg">
<g clip-path="url(#clip0_287_48)">
<path d="M172.098 53.0388C171.635 53.3538 171.374 53.6588 171.313 53.9538C171.252 54.2475 171.365 54.6125 171.658 55.0463L171.319 55.2775C170.577 54.0775 170.097 53.315 169.878 52.9888C169.639 52.6313 169.099 51.8613 168.259 50.68L167.938 50.2363L168.277 50.005C168.618 50.515 168.972 50.83 169.337 50.9538C169.702 51.0775 170.13 50.97 170.625 50.6313L174.563 47.9488C175.079 47.5975 175.428 47.2925 175.608 47.0363C175.788 46.7788 175.845 46.515 175.78 46.2425C175.717 45.9713 175.534 45.6125 175.237 45.1688L175.59 44.9263C176.245 45.855 176.838 46.5813 177.369 47.1038C177.9 47.6275 178.462 48.025 179.054 48.3025L172.098 53.0388Z" fill="#00ADBD"/>
<path d="M185.191 60.7174C185.172 61.6115 184.899 62.4818 184.403 63.2261C183.904 63.9799 183.201 64.5824 182.293 65.0374C181.362 65.5024 180.422 65.7111 179.473 65.6674C178.534 65.6265 177.626 65.3205 176.854 64.7849C176.057 64.2411 175.421 63.4824 174.942 62.5086C174.492 61.5936 174.281 60.6774 174.307 59.7586C174.333 58.8399 174.594 58.0011 175.091 57.2411C175.586 56.4811 176.294 55.8724 177.213 55.4136C178.132 54.9549 179.066 54.7461 180.016 54.7911C180.952 54.8308 181.857 55.1331 182.629 55.6636C183.423 56.2024 184.062 56.9636 184.547 57.9486C185.003 58.8761 185.218 59.7986 185.191 60.7174ZM183.061 57.0936C182.538 56.9461 181.893 56.9511 181.122 57.1099C180.352 57.2674 179.502 57.5799 178.572 58.0449C177.094 58.7824 176.103 59.5436 175.598 60.3299C175.093 61.1161 175.004 61.8424 175.333 62.5111C175.542 62.9336 175.907 63.2149 176.432 63.3536C176.957 63.4924 177.607 63.4861 178.379 63.3349C179.152 63.1811 180.003 62.8736 180.934 62.4074C182.412 61.6699 183.401 60.9099 183.899 60.1274C184.398 59.3449 184.483 58.6186 184.154 57.9511C183.948 57.5274 183.582 57.2411 183.061 57.0936Z" fill="#00ADBD"/>
<path d="M190.447 75.2639C190.285 76.1426 189.876 76.9569 189.268 77.6114C188.654 78.2739 187.864 78.7539 186.895 79.0552C185.903 79.3614 184.942 79.4164 184.012 79.2177C183.091 79.025 182.244 78.5751 181.569 77.9202C180.87 77.2539 180.362 76.4014 180.047 75.3627C179.749 74.3877 179.688 73.4489 179.86 72.5452C180.034 71.6439 180.427 70.8577 181.037 70.1889C181.648 69.5214 182.443 69.0352 183.424 68.7314C184.404 68.4277 185.36 68.3764 186.289 68.5739C187.207 68.7657 188.052 69.2119 188.728 69.8614C189.425 70.5214 189.934 71.3777 190.254 72.4289C190.555 73.4164 190.619 74.3627 190.447 75.2639ZM188.926 71.3402C188.434 71.1089 187.795 71.0089 187.01 71.0402C186.225 71.0714 185.336 71.2402 184.343 71.5477C182.767 72.0352 181.666 72.6252 181.043 73.3189C180.418 74.0114 180.215 74.7152 180.433 75.4277C180.57 75.8777 180.887 76.2139 181.382 76.4377C181.878 76.6602 182.519 76.7602 183.306 76.7352C184.093 76.7102 184.982 76.5452 185.976 76.2377C187.552 75.7502 188.649 75.1602 189.267 74.4689C189.884 73.7777 190.084 73.0764 189.868 72.3614C189.731 71.9139 189.417 71.5714 188.926 71.3402Z" fill="#00ADBD"/>
<path d="M199.794 93.731L181.651 84.4335L181.856 84.0323L199.999 93.3298L199.794 93.731ZM189.354 94.6148C188.864 95.2623 188.131 95.6485 187.152 95.771C186.508 95.8523 185.924 95.7873 185.401 95.576C184.89 95.3737 184.446 95.0314 184.121 94.5885C183.785 94.1284 183.577 93.5883 183.516 93.0223C183.398 92.0735 183.584 91.2723 184.073 90.6173C184.562 89.9623 185.296 89.5735 186.274 89.451C186.862 89.3662 187.462 89.4342 188.016 89.6485C188.544 89.8585 188.976 90.191 189.306 90.6435C189.636 91.096 189.839 91.621 189.913 92.2185C190.029 93.1673 189.844 93.966 189.354 94.6148ZM186.524 91.3198C185.597 91.4361 184.909 91.6423 184.462 91.9348C184.013 92.2285 183.816 92.5898 183.869 93.0185C183.971 93.8498 184.976 94.146 186.883 93.9073C187.823 93.7885 188.518 93.586 188.967 93.2998C189.414 93.0135 189.613 92.6548 189.561 92.2273C189.456 91.3798 188.444 91.0786 186.524 91.3198ZM197.128 86.9923C196.639 87.6398 195.904 88.0248 194.926 88.1485C194.281 88.2298 193.697 88.1648 193.174 87.9523C192.664 87.7503 192.22 87.4085 191.894 86.966C191.559 86.5059 191.351 85.9658 191.289 85.3998C191.173 84.4523 191.358 83.6498 191.847 82.9948C192.336 82.341 193.069 81.951 194.048 81.8285C194.636 81.7443 195.235 81.8123 195.789 82.026C196.319 82.236 196.749 82.5685 197.081 83.0223C197.411 83.4748 197.613 83.9998 197.687 84.5973C197.803 85.546 197.617 86.3448 197.128 86.9923ZM194.298 83.6973C193.369 83.8136 192.682 84.0198 192.234 84.3123C191.786 84.606 191.588 84.9673 191.642 85.396C191.744 86.226 192.749 86.5223 194.657 86.2835C195.597 86.1648 196.292 85.9635 196.741 85.676C197.189 85.3898 197.387 85.031 197.334 84.6035C197.229 83.7573 196.217 83.4561 194.298 83.6973Z" fill="#00ADBD"/>
<path d="M192.189 123.144C191.591 123.027 191.102 122.954 190.724 122.921L190.808 122.477C192.297 122.499 193.386 122.309 194.069 121.907C194.753 121.506 195.183 120.842 195.358 119.917L195.478 119.281C195.554 118.881 195.577 118.586 195.548 118.395C195.536 118.303 195.502 118.215 195.449 118.139C195.396 118.063 195.326 118 195.244 117.956C195.072 117.857 194.782 117.767 194.373 117.69L189.553 116.76L189.424 117.436C189.296 118.117 189.446 118.682 189.876 119.131C190.306 119.581 190.852 119.942 191.514 120.216L191.431 120.66C190.902 120.519 190.306 120.384 189.643 120.256L188.726 120.079C188.076 119.952 187.162 119.816 185.987 119.671L186.071 119.227C187.804 119.281 188.796 118.66 189.042 117.361L189.171 116.686L184.771 115.839C184.261 115.74 183.878 115.722 183.621 115.786C183.493 115.818 183.375 115.879 183.275 115.963C183.175 116.048 183.095 116.154 183.042 116.274C182.913 116.536 182.784 116.967 182.657 117.57L182.237 117.489C182.574 115.915 182.817 114.742 182.963 113.971C183.086 113.329 183.226 112.516 183.387 111.535L183.484 110.914L183.867 110.987C183.812 111.416 183.803 111.739 183.842 111.952C183.86 112.057 183.902 112.155 183.966 112.24C184.029 112.325 184.111 112.395 184.206 112.442C184.408 112.554 184.752 112.657 185.237 112.751L194.724 114.579C195.209 114.672 195.567 114.704 195.797 114.675C195.902 114.666 196.003 114.632 196.093 114.576C196.183 114.521 196.258 114.445 196.313 114.355C196.427 114.17 196.537 113.869 196.643 113.449L197.027 113.522C196.584 115.609 196.167 117.701 195.777 119.799C195.418 121.687 195.183 123.035 195.071 123.839C194.12 123.568 193.159 123.336 192.189 123.144Z" fill="#00ADBD"/>
<path d="M187.594 134.235C187.164 134.407 186.685 134.413 186.251 134.253C185.796 134.098 185.468 133.838 185.269 133.473C185.071 133.106 185.043 132.708 185.189 132.274C185.331 131.853 185.552 131.555 185.851 131.381C186.148 131.206 186.476 131.18 186.832 131.303C187.423 131.504 187.811 131.94 187.996 132.611C188.035 132.543 188.066 132.47 188.089 132.395C188.131 132.27 188.152 132.168 188.152 132.085C188.237 131.589 188.088 131.093 187.707 130.596C187.326 130.1 186.877 129.763 186.361 129.586L181.472 127.916C180.907 127.724 180.466 127.729 180.152 127.931C179.837 128.135 179.577 128.54 179.373 129.148L178.986 129.015C179.044 128.841 179.097 128.701 179.148 128.594C179.611 127.343 179.912 126.506 180.053 126.085C180.167 125.751 180.404 124.981 180.767 123.779C180.787 123.676 180.823 123.55 180.873 123.401L181.261 123.533C181.111 123.979 181.102 124.321 181.234 124.56C181.366 124.799 181.684 125.004 182.188 125.176L187.998 127.161C188.563 127.355 189.004 127.408 189.322 127.323C189.638 127.238 189.871 126.971 190.022 126.525L190.409 126.658C190.239 127.041 190.091 127.42 189.967 127.791C189.596 128.895 189.377 129.829 189.312 130.594L187.597 130.008C188.047 130.424 188.359 130.911 188.536 131.468C188.712 132.025 188.706 132.584 188.518 133.141C188.328 133.699 188.022 134.064 187.594 134.235Z" fill="#00ADBD"/>
<path d="M176.489 141.865L176.231 142.131C175.589 141.534 175.129 140.769 174.901 139.922C174.661 139.056 174.759 138.169 175.194 137.262C175.794 136.014 176.666 135.214 177.808 134.862C178.951 134.511 180.293 134.714 181.836 135.467C183.413 136.237 184.429 137.221 184.884 138.419C185.341 139.616 185.256 140.869 184.626 142.175C183.562 144.39 181.732 144.862 179.138 143.596L181.524 138.631C181.356 138.534 181.083 138.394 180.709 138.212C179.938 137.835 179.243 137.63 178.624 137.596C178.007 137.564 177.497 137.664 177.096 137.897C176.694 138.13 176.398 138.447 176.204 138.847C175.746 139.812 175.838 140.817 176.489 141.865ZM184.037 140.457C183.649 139.927 182.929 139.361 181.877 138.759L180.543 141.532C181.454 142.006 182.261 142.286 182.962 142.375C183.662 142.462 184.112 142.3 184.309 141.887C184.516 141.465 184.424 140.987 184.037 140.457Z" fill="#00ADBD"/>
<path d="M178.131 153.135C177.801 153.417 177.509 153.61 177.258 153.709C177.136 153.749 177.029 153.826 176.952 153.929C176.888 154.027 176.883 154.146 176.941 154.286C176.998 154.426 177.117 154.57 177.299 154.721L177.076 155.066C176.549 154.657 175.607 154.005 174.249 153.11L174.473 152.765C175.254 153.139 175.996 153.319 176.696 153.302C177.396 153.286 177.952 152.962 178.363 152.326C178.577 151.997 178.659 151.665 178.613 151.329C178.567 150.994 178.381 150.719 178.054 150.505C177.881 150.386 177.686 150.303 177.48 150.26C177.274 150.217 177.062 150.215 176.856 150.254C176.426 150.33 175.846 150.511 175.118 150.799L174.467 151.05C173.533 151.389 172.768 151.589 172.171 151.649C171.574 151.709 170.981 151.545 170.394 151.159C169.931 150.862 169.58 150.42 169.396 149.902C169.205 149.362 169.164 148.78 169.277 148.217C169.387 147.617 169.627 147.032 169.997 146.464C170.388 145.861 170.836 145.421 171.341 145.145C171.742 144.909 172.019 144.732 172.173 144.615C172.277 144.527 172.303 144.407 172.254 144.257C172.178 144.069 172.061 143.9 171.912 143.762L172.136 143.417C172.727 143.869 173.799 144.607 175.354 145.631L175.131 145.976C172.988 144.877 171.509 144.959 170.692 146.219C170.492 146.512 170.407 146.868 170.451 147.22C170.496 147.569 170.713 147.874 171.104 148.131C171.408 148.331 171.724 148.442 172.052 148.462C172.379 148.482 172.703 148.45 173.023 148.364C173.343 148.276 173.801 148.134 174.397 147.931C174.949 147.743 175.508 147.575 176.072 147.427C176.478 147.327 176.903 147.295 177.346 147.329C177.788 147.362 178.212 147.512 178.613 147.777C179.309 148.235 179.681 148.87 179.727 149.684C179.774 150.496 179.542 151.297 179.031 152.086C178.783 152.478 178.48 152.831 178.131 153.135Z" fill="#00ADBD"/>
<path d="M170.618 160.455C171.142 161.7 170.901 162.903 169.892 164.065C169.226 164.834 168.564 165.206 167.909 165.186C167.545 165.182 167.188 165.086 166.869 164.909C166.507 164.719 166.082 164.409 165.593 163.979L161.649 160.503C161.249 160.149 160.913 159.975 160.642 159.979C160.371 159.983 160.082 160.163 159.774 160.518L159.466 160.246C160.058 159.622 160.642 158.989 161.217 158.348C161.508 158.013 162.043 157.355 162.826 156.375L163.133 156.646C162.877 156.941 162.773 157.215 162.822 157.468C162.871 157.719 163.096 158.021 163.497 158.376L168.056 162.395C168.456 162.748 168.817 162.949 169.137 162.996C169.458 163.045 169.768 162.895 170.067 162.551C170.426 162.138 170.568 161.65 170.494 161.09C170.419 160.529 170.139 160.034 169.651 159.603L165.561 155.996C165.159 155.643 164.832 155.459 164.579 155.444C164.326 155.429 164.069 155.569 163.813 155.864L163.506 155.593C164.063 155.007 164.613 154.413 165.154 153.811C165.735 153.123 166.306 152.426 166.866 151.72L167.174 151.991C166.874 152.336 166.738 152.648 166.767 152.923C166.794 153.199 167.008 153.514 167.409 153.869L175.749 161.221C176.199 161.619 176.588 161.835 176.918 161.874C177.247 161.913 177.562 161.758 177.861 161.414L178.169 161.685C177.876 161.964 177.596 162.257 177.331 162.563C176.587 163.419 176.031 164.199 175.663 164.9L170.618 160.455Z" fill="#00ADBD"/>
<path d="M156.514 180.176C156.851 179.886 157.072 179.651 157.181 179.469C157.234 179.379 157.267 179.278 157.275 179.173C157.284 179.069 157.268 178.964 157.229 178.866C157.153 178.646 156.966 178.336 156.668 177.941L150.832 170.181C150.534 169.785 150.289 169.52 150.099 169.386C150.017 169.323 149.921 169.279 149.819 169.258C149.717 169.238 149.611 169.242 149.511 169.269C149.308 169.325 149.023 169.478 148.657 169.726L148.421 169.413C149.229 168.852 150.022 168.271 150.799 167.669C151.907 166.823 152.712 166.181 153.217 165.748L153.452 166.06C153.126 166.343 152.907 166.576 152.793 166.76C152.737 166.85 152.703 166.953 152.694 167.059C152.684 167.164 152.699 167.271 152.738 167.37C152.814 167.59 153.001 167.899 153.299 168.295L159.137 176.055C159.434 176.451 159.679 176.716 159.869 176.85C159.953 176.914 160.051 176.957 160.154 176.977C160.258 176.996 160.365 176.991 160.466 176.961C160.673 176.901 160.956 176.751 161.312 176.511L161.547 176.825C160.702 177.412 159.873 178.021 159.061 178.653C158.275 179.244 157.505 179.857 156.752 180.49L156.514 180.176Z" fill="#00ADBD"/>
<path d="M143.061 183.977C142.721 183.855 142.419 183.647 142.182 183.375C141.911 183.08 141.611 182.641 141.282 182.061L138.688 177.472C138.426 177.006 138.161 176.732 137.898 176.65C137.636 176.567 137.306 176.64 136.912 176.867L136.709 176.51C137.473 176.116 138.231 175.711 138.982 175.295C139.319 175.101 140.041 174.656 141.142 173.962L141.344 174.321C141.006 174.516 140.818 174.74 140.783 174.994C140.747 175.247 140.862 175.607 141.126 176.074L144.123 181.379C144.387 181.845 144.662 182.154 144.951 182.305C145.237 182.456 145.578 182.419 145.973 182.192C146.436 181.926 146.723 181.51 146.834 180.941C146.946 180.372 146.844 179.809 146.529 179.251L143.849 174.51C143.586 174.044 143.337 173.761 143.101 173.661C142.866 173.564 142.579 173.611 142.241 173.806L142.038 173.446C143.102 172.896 143.813 172.517 144.174 172.31C144.513 172.115 145.278 171.645 146.471 170.9L146.673 171.257C146.267 171.491 146.034 171.741 145.976 172.007C145.918 172.274 146.021 172.641 146.284 173.109L149.322 178.481C149.617 179.004 149.912 179.339 150.204 179.487C150.498 179.635 150.847 179.592 151.253 179.36L151.456 179.717C151.076 179.891 150.716 180.075 150.377 180.269C149.373 180.845 148.594 181.399 148.042 181.927L147.174 180.392C147.264 181.741 146.638 182.801 145.297 183.572C144.439 184.066 143.694 184.201 143.061 183.977Z" fill="#00ADBD"/>
<path d="M130.047 188.357C130.279 188.456 130.454 188.657 130.573 188.962C130.686 189.255 130.728 189.582 130.701 189.944C130.944 189.707 131.131 189.476 131.259 189.25C131.388 189.024 131.474 188.769 131.518 188.485C130.969 188.181 130.556 187.67 130.278 186.949C129.907 185.985 129.957 185.13 130.428 184.385C130.899 183.637 131.679 183.051 132.768 182.625L133.094 182.496C133.478 182.01 133.601 181.589 133.466 181.236C133.316 180.845 132.997 180.745 132.514 180.935L130.536 181.71C129.471 182.127 128.543 182.262 127.756 182.114C126.967 181.966 126.416 181.484 126.101 180.667C125.86 180.052 125.838 179.373 126.037 178.744C126.234 178.084 126.674 177.444 127.354 176.826C128.036 176.209 128.958 175.672 130.119 175.216C131.293 174.756 132.292 174.537 133.114 174.559C133.937 174.58 134.458 174.871 134.674 175.431C134.821 175.811 134.782 176.216 134.558 176.647C134.334 177.079 133.923 177.51 133.323 177.942L133.047 177.714C133.341 177.177 133.397 176.67 133.212 176.195C133.014 175.682 132.633 175.38 132.068 175.285C131.502 175.191 130.814 175.302 130.003 175.62C129.157 175.951 128.536 176.392 128.141 176.94C127.746 177.487 127.668 178.072 127.908 178.695C128.063 179.097 128.334 179.357 128.721 179.472C129.107 179.587 129.668 179.501 130.406 179.212L131.531 178.771C132.304 178.467 132.961 178.361 133.498 178.454C134.034 178.545 134.407 178.859 134.613 179.395C134.787 179.846 134.786 180.31 134.608 180.787C134.429 181.265 134.083 181.794 133.568 182.372C134.483 182.141 135.286 182.164 135.977 182.44C136.668 182.716 137.177 183.275 137.502 184.117C137.873 185.081 137.823 185.935 137.352 186.682C136.881 187.429 136.101 188.016 135.012 188.442C133.802 188.917 132.766 188.992 131.902 188.671C131.804 189.081 131.616 189.464 131.352 189.792C131.089 190.12 130.782 190.352 130.431 190.491C130.068 190.634 129.738 190.639 129.444 190.509C129.151 190.377 128.937 190.142 128.806 189.8C128.674 189.459 128.666 189.157 128.779 188.894C128.83 188.77 128.905 188.658 129 188.565C129.095 188.471 129.209 188.398 129.333 188.35C129.563 188.258 129.819 188.261 130.047 188.357ZM132.349 183.842C132.324 184.302 132.493 185.001 132.856 185.941C133.218 186.88 133.562 187.51 133.888 187.832C134.214 188.154 134.547 188.247 134.886 188.115C135.224 187.982 135.406 187.686 135.431 187.227C135.456 186.769 135.287 186.069 134.923 185.13C134.562 184.19 134.217 183.56 133.892 183.239C133.566 182.917 133.233 182.822 132.894 182.955C132.557 183.089 132.374 183.385 132.349 183.842Z" fill="#00ADBD"/>
<path d="M118.136 193.017C117.761 192.742 117.5 192.339 117.403 191.884C117.291 191.412 117.333 190.995 117.533 190.63C117.733 190.264 118.054 190.027 118.496 189.921C118.926 189.816 119.293 189.844 119.598 190.005C119.904 190.165 120.102 190.431 120.191 190.8C120.337 191.41 120.178 191.974 119.714 192.491C119.793 192.488 119.871 192.476 119.947 192.455C120.05 192.433 120.149 192.396 120.241 192.344C120.702 192.15 121.038 191.759 121.251 191.167C121.464 190.577 121.506 190.016 121.377 189.48L120.164 184.424C120.023 183.839 119.784 183.466 119.444 183.307C119.106 183.147 118.627 183.142 118.008 183.292L117.912 182.892C118.089 182.85 118.236 182.82 118.352 182.805C119.217 182.625 120.08 182.435 120.941 182.235C121.714 182.034 122.485 181.826 123.254 181.61C123.353 181.572 123.477 181.536 123.628 181.499L123.724 181.899C123.271 182.01 122.978 182.185 122.849 182.426C122.721 182.666 122.718 183.047 122.843 183.569L124.286 189.58C124.426 190.165 124.617 190.57 124.857 190.794C125.098 191.019 125.444 191.074 125.899 190.964L125.996 191.364C125.583 191.425 125.187 191.501 124.808 191.592C123.686 191.866 122.784 192.18 122.109 192.534L121.684 190.759C121.576 191.364 121.334 191.891 120.961 192.339C120.599 192.778 120.103 193.088 119.548 193.219C118.979 193.359 118.509 193.29 118.136 193.017Z" fill="#00ADBD"/>
<path d="M105.784 187.623L105.423 187.544C105.582 186.682 105.978 185.881 106.568 185.233C107.168 184.565 107.963 184.176 108.957 184.065C110.324 183.911 111.461 184.228 112.364 185.015C113.268 185.803 113.814 187.054 114.004 188.771C114.198 190.528 113.914 191.919 113.153 192.946C112.392 193.973 111.294 194.568 109.862 194.729C107.436 195 106.063 193.694 105.744 190.806L111.183 190.195C111.165 189.888 111.138 189.582 111.102 189.276C111.006 188.418 110.808 187.715 110.506 187.17C110.203 186.624 109.848 186.241 109.439 186.025C109.051 185.812 108.607 185.725 108.167 185.774C107.108 185.894 106.314 186.51 105.784 187.623ZM110.989 193.31C111.228 192.696 111.319 191.781 111.263 190.563L108.224 190.905C108.312 191.935 108.506 192.773 108.806 193.418C109.106 194.063 109.482 194.359 109.933 194.309C110.397 194.256 110.749 193.923 110.989 193.31Z" fill="#00ADBD"/>
<path d="M92.7843 185.471C92.6118 185.191 92.2918 185.042 91.8243 185.027L91.8381 184.615C92.2393 184.667 92.6406 184.7 93.0431 184.714C94.1981 184.752 95.1481 184.692 95.8931 184.534L95.8381 186.221C96.3168 185.059 97.1806 184.499 98.4268 184.54C99.6456 184.581 100.602 185.061 101.292 185.981C101.983 186.901 102.292 188.262 102.221 190.067C102.183 191.217 101.966 192.182 101.571 192.962C101.176 193.741 100.643 194.32 99.9743 194.697C99.3068 195.075 98.5506 195.249 97.7068 195.221C96.7593 195.19 96.0468 194.917 95.5706 194.404L95.4606 197.74C95.4418 198.341 95.5218 198.782 95.7006 199.062C95.8793 199.344 96.1956 199.492 96.6506 199.506L96.6368 199.919C96.2369 199.868 95.8348 199.835 95.4318 199.82C94.3031 199.782 93.3518 199.842 92.5806 200L93.0118 186.795C93.0331 186.192 92.9568 185.752 92.7843 185.471ZM96.4456 185.79C96.1043 186.092 95.8943 186.511 95.8106 187.045L95.5868 193.912C95.8968 194.367 96.3631 194.606 96.9856 194.626C97.6731 194.65 98.2181 194.267 98.6218 193.482C99.0243 192.696 99.2443 191.512 99.2831 189.93C99.3493 188.335 99.2343 187.179 98.9393 186.461C98.6443 185.745 98.1981 185.376 97.6018 185.357C97.3902 185.35 97.1791 185.384 96.9807 185.459C96.7823 185.533 96.6005 185.645 96.4456 185.79Z" fill="#00ADBD"/>
<path d="M83.6344 198.251C83.3606 197.938 83.2606 197.548 83.3331 197.081C83.4056 196.615 83.6181 196.275 83.9744 196.06C84.3306 195.844 84.7769 195.78 85.3156 195.864C85.8544 195.949 86.2606 196.149 86.5331 196.464C86.8069 196.778 86.9069 197.169 86.8356 197.634C86.7631 198.099 86.5506 198.44 86.1931 198.655C85.8381 198.871 85.3906 198.936 84.8519 198.851C84.3131 198.766 83.9081 198.566 83.6344 198.251ZM85.4031 185.386C85.4844 184.856 85.4494 184.475 85.2944 184.248C85.1394 184.018 84.8369 183.868 84.3881 183.796L84.4519 183.39C85.7256 183.644 86.5756 183.803 86.9994 183.87C87.3969 183.933 88.2931 184.048 89.6856 184.214L89.6219 184.621C89.1594 184.548 88.8244 184.598 88.6131 184.77C88.4031 184.941 88.2569 185.294 88.1744 185.824L87.2269 191.934C87.1344 192.528 87.1581 192.975 87.2956 193.275C87.4331 193.575 87.7319 193.761 88.1956 193.834L88.1319 194.241C87.7412 194.141 87.3462 194.059 86.9481 193.995C85.8069 193.816 84.8556 193.759 84.0956 193.824L85.4031 185.386Z" fill="#00ADBD"/>
<path d="M73.4756 183.613L73.1681 183.405C73.6304 182.663 74.2923 182.066 75.0781 181.683C75.8781 181.285 76.7618 181.219 77.7256 181.485C79.0531 181.85 79.9943 182.566 80.5456 183.634C81.0981 184.701 81.1481 186.069 80.6968 187.735C80.2356 189.44 79.4643 190.629 78.3818 191.3C77.2981 191.971 76.0606 192.118 74.6706 191.735C72.3143 191.088 71.5168 189.361 72.2756 186.559L77.5543 188.01C77.6181 187.825 77.7043 187.529 77.8131 187.126C78.0393 186.293 78.1118 185.566 78.0293 184.948C77.9481 184.329 77.7581 183.843 77.4568 183.488C77.1733 183.146 76.7921 182.899 76.3643 182.78C75.3393 182.498 74.3756 182.774 73.4756 183.613ZM76.2356 190.831C76.6818 190.35 77.1018 189.534 77.4943 188.38L74.5443 187.569C74.2493 188.559 74.1231 189.41 74.1668 190.121C74.2106 190.833 74.4518 191.248 74.8893 191.369C75.3418 191.491 75.7893 191.313 76.2356 190.831Z" fill="#00ADBD"/>
<path d="M59.2169 185.115C59.1103 184.768 59.0935 184.4 59.1681 184.045C59.2394 183.647 59.4069 183.144 59.6706 182.531L61.7544 177.686C61.9656 177.194 62.0244 176.817 61.9331 176.555C61.8406 176.292 61.5856 176.071 61.1681 175.89L61.3306 175.511C62.5006 176.08 63.2769 176.447 63.6581 176.615C64.0156 176.771 64.8006 177.085 66.0119 177.559L65.8494 177.936C65.4906 177.781 65.2006 177.765 64.9781 177.887C64.7556 178.011 64.5381 178.32 64.3269 178.811L61.9169 184.412C61.7056 184.905 61.6256 185.314 61.6781 185.635C61.7306 185.957 61.9644 186.21 62.3831 186.391C62.8706 186.605 63.3731 186.586 63.8931 186.334C64.4119 186.082 64.7969 185.664 65.0506 185.076L67.2044 180.069C67.4156 179.576 67.4906 179.206 67.4269 178.956C67.3644 178.709 67.1531 178.506 66.7969 178.349L66.9581 177.971C68.0344 178.497 68.7631 178.846 69.1431 179.011C69.5006 179.167 70.3331 179.502 71.6406 180.017L71.4769 180.396C71.0494 180.209 70.7106 180.171 70.4631 180.285C70.2169 180.397 69.9869 180.701 69.7756 181.194L67.3344 186.866C67.0969 187.419 67.0069 187.857 67.0656 188.182C67.1244 188.506 67.3681 188.764 67.7969 188.951L67.6344 189.33C67.2807 189.134 66.9182 188.954 66.5481 188.791C65.4881 188.327 64.5831 188.031 63.8319 187.902L64.5294 186.281C63.5131 187.164 62.2969 187.296 60.8781 186.676C59.9744 186.281 59.4194 185.76 59.2169 185.115Z" fill="#00ADBD"/>
<path d="M51.0355 181.099L49.0605 179.916L49.2593 179.578L51.2343 180.761L55.2543 173.944C55.453 173.606 55.5355 173.333 55.5018 173.121C55.4668 172.911 55.323 172.729 55.0643 172.574C54.5855 172.286 54.0068 172.396 53.3293 172.905L53.133 172.583C54.2405 171.679 55.3468 171.556 56.4518 172.219C57.1893 172.66 57.6343 173.186 57.788 173.795C57.883 174.173 57.868 174.563 57.7418 174.968C57.6168 175.371 57.373 175.884 57.0068 176.503L53.643 182.206L55.0493 183.05L54.8493 183.388L53.443 182.545L52.1293 184.773C51.203 184.219 50.293 183.916 49.4005 183.869L51.0355 181.099Z" fill="#00ADBD"/>
<path d="M42.2307 175.093C41.9732 174.741 41.8032 174.435 41.7207 174.175C41.6884 174.05 41.6197 173.938 41.5232 173.853C41.4294 173.781 41.3119 173.77 41.1719 173.818C41.0294 173.865 40.8782 173.976 40.7157 174.149L40.3894 173.9C40.8307 173.399 41.5407 172.495 42.5182 171.19L42.8444 171.439C42.4207 172.199 42.1944 172.933 42.1619 173.638C42.1294 174.343 42.4132 174.924 43.0144 175.383C43.3244 175.619 43.6482 175.725 43.9832 175.703C44.3182 175.679 44.6032 175.511 44.8382 175.198C45.1044 174.843 45.2132 174.446 45.1669 174.009C45.1207 173.571 44.9807 172.976 44.7482 172.225L44.5432 171.553C44.2719 170.591 44.1269 169.808 44.1082 169.204C44.0894 168.599 44.2907 168.014 44.7144 167.451C45.037 167.007 45.499 166.683 46.0269 166.531C46.5745 166.378 47.1537 166.376 47.7019 166.528C48.2882 166.678 48.8507 166.96 49.3894 167.37C49.9594 167.805 50.3644 168.285 50.6032 168.811C50.8094 169.23 50.9657 169.521 51.0719 169.684C51.1519 169.794 51.2682 169.829 51.4207 169.789C51.5719 169.749 51.7432 169.645 51.9332 169.479L52.2594 169.728C51.7719 170.291 50.9682 171.319 49.8482 172.811L49.5219 172.563C50.7544 170.484 50.7757 168.99 49.5844 168.083C49.3095 167.862 48.9626 167.751 48.6107 167.771C48.2619 167.793 47.9457 167.99 47.6632 168.365C47.4457 168.658 47.3132 168.968 47.2707 169.296C47.2282 169.625 47.2394 169.953 47.3019 170.28C47.3657 170.608 47.4769 171.078 47.6369 171.691C47.8194 172.423 47.9482 172.995 48.0194 173.41C48.0907 173.825 48.0944 174.254 48.0294 174.699C47.9616 175.152 47.7791 175.58 47.4994 175.943C46.9982 176.611 46.3444 176.941 45.5369 176.933C44.7282 176.923 43.9519 176.635 43.2069 176.068C42.8354 175.792 42.5065 175.464 42.2307 175.093Z" fill="#00ADBD"/>
<path d="M27.7532 146.973C28.2169 146.659 28.4794 146.356 28.5419 146.061C28.6044 145.768 28.4907 145.403 28.2007 144.969L28.5407 144.739C29.0077 145.51 29.4852 146.275 29.9732 147.033C30.2107 147.391 30.7482 148.163 31.5832 149.348L31.9032 149.794L31.5632 150.024C31.2232 149.513 30.8719 149.195 30.5069 149.071C30.1432 148.948 29.7132 149.053 29.2182 149.388L25.2707 152.055C24.7532 152.406 24.4044 152.709 24.2232 152.965C24.137 153.076 24.0766 153.205 24.0461 153.342C24.0156 153.479 24.0159 153.622 24.0469 153.759C24.1107 154.031 24.2907 154.39 24.5869 154.835L24.2307 155.075C23.5807 154.145 22.9907 153.416 22.4607 152.891C21.9738 152.396 21.4051 151.988 20.7794 151.686L27.7532 146.973Z" fill="#00ADBD"/>
<path d="M14.6919 139.255C14.7131 138.361 14.9898 137.491 15.4894 136.749C15.9906 135.997 16.6956 135.396 17.6056 134.946C18.5381 134.485 19.4794 134.277 20.4269 134.325C21.3769 134.372 22.2481 134.67 23.0431 135.217C23.8381 135.764 24.4731 136.525 24.9469 137.5C25.3944 138.416 25.6019 139.334 25.5731 140.253C25.5513 141.148 25.2766 142.02 24.7806 142.766C24.2819 143.524 23.5719 144.13 22.6519 144.586C21.7306 145.042 20.7969 145.246 19.8469 145.199C18.9105 145.155 18.0052 144.85 17.2344 144.316C16.4431 143.775 15.8081 143.01 15.3256 142.024C14.8731 141.097 14.6619 140.174 14.6919 139.255ZM16.8094 142.886C17.3306 143.036 17.9769 143.034 18.7481 142.879C19.5181 142.722 20.3694 142.414 21.3019 141.952C22.7819 141.22 23.7756 140.462 24.2819 139.677C24.7906 138.894 24.8806 138.167 24.5544 137.499C24.3481 137.075 23.9831 136.794 23.4594 136.652C22.9344 136.511 22.2844 136.516 21.5119 136.665C20.7381 136.815 19.8856 137.12 18.9531 137.583C17.4731 138.315 16.4819 139.072 15.9806 139.852C15.4794 140.634 15.3906 141.359 15.7181 142.029C15.9244 142.451 16.2881 142.736 16.8094 142.886Z" fill="#00ADBD"/>
<path d="M9.48439 124.679C9.66064 123.778 10.0569 122.996 10.6731 122.336C11.2894 121.676 12.0819 121.199 13.0519 120.904C14.0444 120.6 15.0069 120.549 15.9356 120.75C16.8644 120.951 17.6769 121.388 18.3731 122.056C19.0694 122.726 19.5744 123.58 19.8869 124.62C20.1806 125.598 20.2394 126.536 20.0631 127.439C19.897 128.319 19.4859 129.135 18.8769 129.793C18.2631 130.458 17.4669 130.94 16.4831 131.24C15.5031 131.54 14.5469 131.589 13.6181 131.388C12.7008 131.193 11.8568 130.744 11.1831 130.091C10.4881 129.429 9.98314 128.571 9.66689 127.519C9.36939 126.526 9.30814 125.58 9.48439 124.679ZM10.9931 128.608C11.4831 128.841 12.1219 128.943 12.9056 128.915C13.6919 128.888 14.5806 128.721 15.5756 128.418C17.1531 127.936 18.2544 127.35 18.8819 126.659C19.5081 125.969 19.7144 125.266 19.5006 124.551C19.3656 124.101 19.0494 123.764 18.5544 123.539C18.0594 123.314 17.4194 123.213 16.6306 123.234C15.8431 123.256 14.9531 123.419 13.9581 123.721C12.3806 124.204 11.2819 124.789 10.6606 125.478C10.0406 126.166 9.83689 126.868 10.0519 127.581C10.1894 128.033 10.5006 128.374 10.9931 128.608Z" fill="#00ADBD"/>
<path d="M0.206861 106.184L18.3156 115.549L18.1094 115.95L0.000610352 106.585L0.206861 106.184ZM2.84936 112.931C3.34061 112.285 4.07561 111.901 5.05561 111.783C5.70061 111.705 6.28436 111.773 6.80686 111.985C7.32936 112.199 7.75436 112.529 8.08186 112.976C8.41061 113.425 8.61061 113.948 8.68186 114.545C8.79561 115.494 8.60686 116.294 8.11686 116.948C7.62686 117.6 6.89061 117.986 5.91186 118.106C5.27936 118.183 4.69936 118.115 4.17061 117.903C3.65423 117.7 3.20721 117.353 2.88311 116.903C2.55037 116.437 2.34329 115.893 2.28186 115.324C2.16811 114.375 2.35811 113.578 2.84936 112.931ZM5.66686 116.238C6.59561 116.124 7.28436 115.921 7.73311 115.63C8.18186 115.339 8.38061 114.978 8.32936 114.549C8.23061 113.718 7.22686 113.418 5.31936 113.649C4.37811 113.764 3.68311 113.964 3.23311 114.249C2.78311 114.535 2.58311 114.891 2.63436 115.32C2.73561 116.165 3.74686 116.47 5.66686 116.238ZM10.6506 105.339C11.1419 104.694 11.8781 104.31 12.8581 104.191C13.5019 104.113 14.0869 104.18 14.6081 104.394C15.1319 104.606 15.5569 104.938 15.8844 105.386C16.2119 105.834 16.4119 106.356 16.4844 106.954C16.5981 107.903 16.4094 108.704 15.9181 109.356C15.4281 110.009 14.6919 110.395 13.7131 110.514C13.0819 110.591 12.5006 110.524 11.9719 110.31C11.4555 110.108 11.0085 109.76 10.6844 109.31C10.3519 108.845 10.1452 108.302 10.0844 107.734C9.97061 106.783 10.1594 105.985 10.6506 105.339ZM13.4694 108.644C14.3969 108.53 15.0856 108.329 15.5356 108.036C15.9844 107.744 16.1819 107.385 16.1319 106.955C16.0319 106.124 15.0294 105.824 13.1206 106.056C12.1794 106.17 11.4856 106.37 11.0344 106.656C10.5844 106.941 10.3856 107.299 10.4369 107.726C10.5369 108.573 11.5481 108.878 13.4694 108.644Z" fill="#00ADBD"/>
<path d="M6.48683 83.5336C7.09308 83.6073 7.58558 83.6473 7.96308 83.6548L7.90933 84.1023C6.42183 84.1848 5.35058 84.4486 4.69433 84.8961C4.03933 85.3436 3.65558 86.0348 3.54308 86.9711L3.46558 87.6136C3.41808 88.0161 3.41433 88.3136 3.45683 88.5023C3.47572 88.5929 3.51566 88.6778 3.57342 88.7501C3.63118 88.8224 3.70515 88.8801 3.78933 88.9186C3.96933 89.0061 4.26558 89.0748 4.67808 89.1261L9.55058 89.7211L9.63308 89.0398C9.71558 88.3511 9.52683 87.7973 9.06683 87.3786C8.5716 86.9396 7.98996 86.6092 7.35933 86.4086L7.41308 85.9598C7.94933 86.0648 8.55308 86.1586 9.22308 86.2398L10.1506 86.3536C10.8081 86.4336 11.7281 86.5073 12.9093 86.5711L12.8556 87.0198C11.1218 87.0848 10.1756 87.7736 10.0181 89.0861L9.93683 89.7686L14.3843 90.3123C14.8993 90.3748 15.2831 90.3661 15.5356 90.2848C15.6604 90.2438 15.7743 90.1751 15.8687 90.0837C15.9631 89.9923 16.0355 89.8807 16.0806 89.7573C16.1906 89.4886 16.2893 89.0486 16.3756 88.4386L16.8006 88.4911C16.6256 89.6759 16.4635 90.8627 16.3143 92.0511C16.2368 92.7011 16.1506 93.5211 16.0581 94.5111L16.0031 95.1373L15.6168 95.0898C15.6418 94.6573 15.6293 94.3361 15.5756 94.1261C15.5505 94.0233 15.5017 93.9278 15.4331 93.8473C15.3646 93.7668 15.2781 93.7034 15.1806 93.6623C14.9706 93.5636 14.6206 93.4848 14.1293 93.4248L4.54058 92.2536C4.05058 92.1936 3.69183 92.1861 3.46308 92.2311C3.35871 92.2474 3.25964 92.288 3.17388 92.3497C3.08811 92.4114 3.01804 92.4923 2.96933 92.5861C2.86808 92.7773 2.77808 93.0873 2.70058 93.5123L2.31433 93.4648C2.52183 92.0673 2.79558 89.9511 3.13683 87.1186C3.36683 85.2086 3.50933 83.8486 3.56808 83.0386C4.64933 83.2636 5.62308 83.4286 6.48683 83.5336Z" fill="#00ADBD"/>
<path d="M10.3169 72.1786C10.7332 71.9786 11.1794 71.9424 11.6557 72.0686C12.1207 72.1936 12.4644 72.4299 12.6882 72.7811C12.9107 73.1324 12.9657 73.5286 12.8494 73.9711C12.7369 74.4011 12.5382 74.7149 12.2519 74.9086C11.9657 75.1049 11.6407 75.1536 11.2769 75.0561C10.6744 74.8961 10.2569 74.4861 10.0269 73.8286C9.99339 73.9 9.96701 73.9745 9.94816 74.0511C9.91814 74.1529 9.90422 74.2588 9.90691 74.3649C9.85566 74.8661 10.0382 75.3511 10.4519 75.8199C10.8657 76.2899 11.3369 76.5936 11.8644 76.7336L16.8532 78.0636C17.4307 78.2174 17.8694 78.1824 18.1707 77.9574C18.4719 77.7324 18.7032 77.3111 18.8644 76.6911L19.2607 76.7961C19.2235 76.9425 19.1788 77.0868 19.1269 77.2286C18.8719 78.081 18.6274 78.9365 18.3932 79.7949C18.3032 80.1361 18.1182 80.9199 17.8382 82.1436C17.8185 82.2734 17.7913 82.4019 17.7569 82.5286L17.3619 82.4236C17.4819 81.9686 17.4669 81.6261 17.3194 81.3961C17.1707 81.1674 16.8394 80.9849 16.3244 80.8486L10.3932 79.2674C9.81566 79.1136 9.37191 79.0911 9.06316 79.1974C8.75316 79.3049 8.53816 79.5861 8.41941 80.0411L8.02441 79.9361C8.16816 79.5411 8.28941 79.1549 8.38941 78.7749C8.68441 77.6486 8.83816 76.7011 8.85191 75.9336L10.6032 76.3999C10.1404 76.0361 9.78305 75.5554 9.56816 75.0074C9.35533 74.4759 9.32197 73.8895 9.47316 73.3374C9.61941 72.7661 9.90191 72.3799 10.3169 72.1786Z" fill="#00ADBD"/>
<path d="M20.8931 63.775L21.1319 63.49C21.8113 64.0425 22.3223 64.7743 22.6069 65.6025C22.9044 66.4513 22.8656 67.3425 22.4919 68.2763C21.9781 69.5625 21.1619 70.4213 20.0456 70.8488C18.9294 71.2775 17.5769 71.1688 15.9869 70.5225C14.3607 69.86 13.2806 68.9488 12.7444 67.7863C12.2094 66.6238 12.2106 65.3675 12.7494 64.02C13.6619 61.7375 15.4556 61.1413 18.1281 62.2275L16.0806 67.3438C16.2569 67.43 16.5369 67.55 16.9232 67.7075C17.7182 68.03 18.4244 68.1875 19.0444 68.1775C19.6644 68.1688 20.1669 68.035 20.5506 67.7738C20.9344 67.515 21.2094 67.1775 21.3744 66.7663C21.7744 65.77 21.6144 64.7725 20.8931 63.775ZM13.4569 65.6938C13.8794 66.1975 14.6357 66.7125 15.7269 67.24L16.8694 64.3825C15.9281 63.9725 15.1056 63.7463 14.4006 63.7063C13.6956 63.6663 13.2582 63.86 13.0881 64.2838C12.9119 64.7213 13.0356 65.1925 13.4569 65.6938Z" fill="#00ADBD"/>
<path d="M18.4844 52.6562C18.7956 52.3525 19.0719 52.1412 19.3169 52.0237C19.4356 51.9743 19.5367 51.8902 19.6069 51.7825C19.6644 51.68 19.6594 51.5612 19.5931 51.4262C19.4992 51.2605 19.3667 51.1199 19.2069 51.0162L19.4069 50.6562C19.9606 51.0288 20.9431 51.6137 22.3594 52.4137L22.1594 52.7738C21.3544 52.4538 20.6044 52.3275 19.9056 52.39C19.2081 52.4537 18.6744 52.8162 18.3069 53.4787C18.1169 53.8212 18.0569 54.1587 18.1244 54.4887C18.1931 54.82 18.3981 55.0812 18.7369 55.2737C19.1231 55.4912 19.5269 55.5475 19.9506 55.4412C20.3744 55.3362 20.9394 55.115 21.6469 54.78L22.2806 54.485C23.1894 54.0825 23.9381 53.8312 24.5306 53.73C25.1231 53.63 25.7244 53.7512 26.3356 54.0962C26.8344 54.3775 27.1956 54.7725 27.4181 55.2813C27.6419 55.7888 27.7194 56.3462 27.6506 56.9537C27.5726 57.5876 27.3691 58.1995 27.0519 58.7538C26.7019 59.3813 26.2856 59.8512 25.7994 60.1625C25.5249 60.3446 25.2595 60.5403 25.0044 60.7488C24.9069 60.845 24.8881 60.965 24.9481 61.11C25.0094 61.2575 25.1331 61.4138 25.3231 61.5813L25.1231 61.9412C24.5019 61.5312 23.3831 60.8687 21.7619 59.9537L21.9619 59.5937C24.1731 60.5437 25.6431 60.36 26.3731 59.0488C26.5525 58.7423 26.6143 58.3811 26.5469 58.0325C26.4781 57.6875 26.2406 57.3987 25.8331 57.1687C25.5395 56.996 25.2051 56.9046 24.8644 56.9037C24.5366 56.905 24.2114 56.9608 23.9019 57.0688C23.5894 57.1775 23.1406 57.3512 22.5606 57.5937C22.0227 57.8195 21.4765 58.0251 20.9231 58.21C20.5143 58.34 20.0871 58.4029 19.6581 58.3962C19.2026 58.3902 18.7564 58.2662 18.3631 58.0362C17.6381 57.6275 17.2244 57.0187 17.1231 56.2112C17.0219 55.4037 17.1981 54.5875 17.6556 53.7662C17.8981 53.3312 18.1731 52.9625 18.4844 52.6562Z" fill="#00ADBD"/>
<path d="M25.4768 44.8474C24.8693 43.6424 25.0281 42.4249 25.9568 41.1949C26.5693 40.3811 27.2031 39.9636 27.8568 39.9386C28.1868 39.9124 28.5393 39.9799 28.9131 40.1449C29.2881 40.3074 29.7331 40.5874 30.2506 40.9836L34.4218 44.1786C34.8456 44.5024 35.1918 44.6536 35.4618 44.6311C35.7318 44.6074 36.0093 44.4086 36.2918 44.0336L36.6181 44.2824C36.0697 44.9466 35.5305 45.6184 35.0006 46.2974C34.7331 46.6524 34.2431 47.3449 33.5306 48.3774L33.2043 48.1274C33.4393 47.8149 33.5243 47.5349 33.4581 47.2874C33.3931 47.0399 33.1481 46.7536 32.7231 46.4299L27.9006 42.7349C27.4768 42.4111 27.1031 42.2361 26.7806 42.2099C26.4568 42.1849 26.1581 42.3549 25.8831 42.7199C25.7217 42.9281 25.6087 43.1696 25.5523 43.4268C25.4959 43.6841 25.4974 43.9507 25.5568 44.2074C25.6681 44.7611 25.9831 45.2361 26.4993 45.6324L30.8256 48.9461C31.2493 49.2711 31.5893 49.4324 31.8431 49.4299C32.0981 49.4274 32.3418 49.2699 32.5781 48.9574L32.9043 49.2074C32.3864 49.8293 31.8788 50.4598 31.3818 51.0986C30.8493 51.8251 30.328 52.5598 29.8181 53.3024L29.4918 53.0536C29.7668 52.6899 29.8806 52.3699 29.8343 52.0961C29.7881 51.8224 29.5531 51.5224 29.1293 51.1986L20.3056 44.4386C19.8306 44.0749 19.4281 43.8849 19.0968 43.8699C18.7656 43.8536 18.4618 44.0299 18.1868 44.3936L17.8618 44.1436C18.1443 43.8349 18.4031 43.5224 18.6393 43.2111C19.3218 42.3049 19.8231 41.4886 20.1418 40.7624L25.4768 44.8474Z" fill="#00ADBD"/>
<path d="M38.2131 24.1839C37.8981 24.4977 37.6918 24.7477 37.5968 24.9352C37.5492 25.0287 37.5238 25.132 37.5227 25.237C37.5216 25.3419 37.5449 25.4457 37.5906 25.5402C37.6818 25.7564 37.8893 26.0502 38.2131 26.4239L44.5656 33.7602C44.8906 34.1352 45.1518 34.3827 45.3506 34.5027C45.4372 34.5604 45.5359 34.5973 45.6392 34.6105C45.7424 34.6238 45.8473 34.613 45.9456 34.5789C46.1431 34.5089 46.4168 34.3364 46.7668 34.0639L47.0231 34.3602C46.4681 34.7952 45.7168 35.4302 44.7681 36.2639C43.9904 36.9389 43.2301 37.6337 42.4881 38.3477L42.2318 38.0514C42.5381 37.7489 42.7406 37.5002 42.8418 37.3077C42.8913 37.2138 42.9183 37.1098 42.9207 37.0037C42.9231 36.8976 42.9008 36.7924 42.8556 36.6964C42.7643 36.4814 42.5568 36.1864 42.2318 35.8127L35.8806 28.4752C35.5556 28.1002 35.2943 27.8539 35.0956 27.7339C35.0078 27.6755 34.9075 27.6387 34.8028 27.6266C34.698 27.6144 34.5919 27.6272 34.4931 27.6639C34.2906 27.7389 34.0206 27.9089 33.6793 28.1714L33.4231 27.8764C33.9481 27.4664 34.7331 26.8014 35.7793 25.8814C36.5225 25.236 37.2486 24.5712 37.9568 23.8877L38.2131 24.1839Z" fill="#00ADBD"/>
<path d="M51.3831 19.4565C51.7031 19.5402 52.0081 19.7202 52.2993 19.9965C52.5906 20.274 52.9193 20.6902 53.2856 21.2452L56.1831 25.644C56.4781 26.0927 56.7581 26.3465 57.0268 26.4102C57.2943 26.4752 57.6181 26.3802 57.9968 26.1265L58.2231 26.4702C57.1131 27.1515 56.3843 27.6065 56.0381 27.839C55.7131 28.0565 55.0243 28.549 53.9718 29.3165L53.7456 28.974C54.0706 28.7565 54.2418 28.5202 54.2593 28.2652C54.2781 28.009 54.1406 27.6577 53.8456 27.2102L50.4943 22.124C50.2006 21.6777 49.9043 21.3877 49.6081 21.2565C49.3118 21.1252 48.9743 21.1865 48.5956 21.4402C48.1518 21.7377 47.8931 22.174 47.8206 22.7477C47.7481 23.3227 47.8868 23.8777 48.2393 24.4127L51.2343 28.959C51.5293 29.4065 51.7968 29.6702 52.0381 29.7527C52.2793 29.834 52.5618 29.7677 52.8856 29.5502L53.1118 29.894C52.0881 30.5165 51.4031 30.944 51.0568 31.1752C50.7331 31.3927 50.0006 31.9127 48.8606 32.739L48.6343 32.3952C49.0231 32.1352 49.2381 31.8702 49.2781 31.599C49.3181 31.329 49.1906 30.9702 48.8956 30.5227L45.5006 25.3702C45.1706 24.869 44.8543 24.5552 44.5531 24.4277C44.2506 24.3002 43.9043 24.3665 43.5156 24.6265L43.2893 24.284C43.6568 24.084 44.0043 23.8777 44.3281 23.659C45.2906 23.0152 46.0306 22.4102 46.5456 21.844L47.5143 23.3165C47.3331 21.9765 47.8856 20.8765 49.1731 20.014C49.9993 19.4627 50.7343 19.2777 51.3831 19.4565Z" fill="#00ADBD"/>
<path d="M64.0732 14.2038C63.8344 14.1213 63.6457 13.9313 63.5082 13.6363C63.3724 13.3309 63.3062 12.9991 63.3144 12.665C63.111 12.8828 62.9393 13.1281 62.8044 13.3938C62.6878 13.6387 62.6179 13.9032 62.5982 14.1738C63.1669 14.44 63.6132 14.9225 63.9382 15.6225C64.3719 16.5588 64.3807 17.415 63.9594 18.1913C63.5382 18.9688 62.7994 19.6063 61.7419 20.1063L61.4244 20.2563C61.0732 20.7688 60.9794 21.1963 61.1394 21.5413C61.3157 21.92 61.6382 21.9988 62.1094 21.7763L64.0307 20.8688C65.0657 20.38 65.9807 20.1825 66.7769 20.2763C67.5732 20.37 68.1557 20.815 68.5257 21.6088C68.8057 22.2125 68.8694 22.8513 68.7169 23.5238C68.5632 24.195 68.1669 24.8638 67.5294 25.5263C66.8919 26.1888 66.0069 26.7863 64.8782 27.3188C63.7382 27.8588 62.7557 28.1438 61.9332 28.1788C61.1107 28.2125 60.5719 27.9575 60.3194 27.4125C60.1494 27.0463 60.1607 26.6388 60.3544 26.1925C60.5482 25.7475 60.9319 25.2888 61.5007 24.8175L61.7907 25.0263C61.5332 25.5825 61.5119 26.0913 61.7269 26.5538C61.9582 27.0513 62.3582 27.3275 62.9294 27.3838C63.4994 27.4388 64.1794 27.2813 64.9669 26.9088C65.7894 26.52 66.3794 26.0388 66.7369 25.465C67.0944 24.8925 67.1332 24.3025 66.8519 23.6988C66.6707 23.3075 66.3832 23.0675 65.9894 22.9788C65.5969 22.89 65.0419 23.015 64.3244 23.3525L63.2319 23.8688C62.4794 24.2238 61.8319 24.375 61.2907 24.3188C60.7494 24.2625 60.3569 23.975 60.1144 23.455C59.9108 23.0193 59.8799 22.5226 60.0282 22.065C60.1744 21.5775 60.4844 21.025 60.9582 20.4113C60.0632 20.705 59.2594 20.7363 58.5507 20.5075C57.8419 20.2788 57.2982 19.755 56.9182 18.9375C56.4832 18.0025 56.4757 17.145 56.8957 16.3688C57.3157 15.5925 58.0557 14.9538 59.1144 14.455C60.2894 13.8988 61.3182 13.7525 62.2007 14.0163C62.2757 13.59 62.4332 13.205 62.6744 12.86C62.9144 12.515 63.2057 12.2613 63.5482 12.1013C63.9007 11.9338 64.2282 11.9063 64.5294 12.0175C64.8319 12.1275 65.0594 12.3488 65.2144 12.68C65.3694 13.0125 65.3969 13.3125 65.3007 13.5825C65.2584 13.709 65.1908 13.8255 65.1021 13.925C65.0133 14.0245 64.9052 14.1049 64.7844 14.1613C64.6747 14.2155 64.5553 14.2473 64.4331 14.2546C64.3109 14.2619 64.1885 14.2446 64.0732 14.2038ZM62.0782 18.8638C62.0719 18.405 61.8569 17.7188 61.4332 16.8063C61.0094 15.8938 60.6232 15.2888 60.2769 14.9888C59.9294 14.6913 59.5919 14.6188 59.2632 14.7738C58.9332 14.9288 58.7719 15.2363 58.7782 15.6963C58.7832 16.155 58.9982 16.8413 59.4219 17.755C59.8457 18.6688 60.2307 19.2738 60.5769 19.5713C60.9244 19.8713 61.2619 19.9425 61.5907 19.7875C61.9219 19.6313 62.0832 19.3238 62.0782 18.8638Z" fill="#00ADBD"/>
<path d="M75.6231 8.73994C76.0143 8.98494 76.2831 9.34619 76.4318 9.81994C76.5768 10.2824 76.5618 10.7024 76.3881 11.0799C76.2143 11.4587 75.9106 11.7162 75.4768 11.8537C75.0556 11.9887 74.6881 11.9849 74.3718 11.8462C74.0556 11.7062 73.8406 11.4562 73.7268 11.0937C73.5393 10.4949 73.6581 9.92119 74.0868 9.37369C74.0088 9.38215 73.932 9.39977 73.8581 9.42619C73.7572 9.45575 73.6611 9.49997 73.5731 9.55744C73.1256 9.78244 72.8168 10.1962 72.6456 10.7999C72.4743 11.4049 72.4706 11.9674 72.6343 12.4924L74.1893 17.4524C74.3681 18.0262 74.6331 18.3812 74.9818 18.5174C75.3306 18.6537 75.8081 18.6249 76.4156 18.4312L76.5381 18.8237C76.3956 18.8702 76.2508 18.9094 76.1043 18.9412C75.2538 19.18 74.4063 19.4292 73.5618 19.6887C72.8029 19.9408 72.047 20.2021 71.2943 20.4724C71.1757 20.5256 71.0538 20.5711 70.9293 20.6087L70.8068 20.2162C71.2518 20.0737 71.5306 19.8799 71.6431 19.6299C71.7568 19.3812 71.7331 19.0012 71.5731 18.4899L69.7256 12.5937C69.5456 12.0199 69.3281 11.6287 69.0731 11.4224C68.8168 11.2149 68.4668 11.1837 68.0206 11.3249L67.8981 10.9324C68.3056 10.8437 68.6956 10.7399 69.0668 10.6212C70.1693 10.2699 71.0443 9.89619 71.6956 9.49619L72.2406 11.2362C72.3068 10.6249 72.5118 10.0837 72.8543 9.61119C73.1848 9.14706 73.6587 8.80447 74.2031 8.63619C74.7593 8.45869 75.2331 8.49369 75.6231 8.73994Z" fill="#00ADBD"/>
<path d="M88.3031 13.2648L88.6693 13.3186C88.5695 14.1899 88.2289 15.0163 87.6856 15.7048C87.1331 16.4111 86.3656 16.8548 85.3818 17.0361C84.0281 17.2848 82.8731 17.0473 81.9181 16.3236C80.9618 15.6023 80.3318 14.3911 80.0243 12.6911C79.7106 10.9536 79.8981 9.54481 80.5881 8.46731C81.2781 7.38981 82.3306 6.71981 83.7493 6.46106C86.1506 6.01981 87.6093 7.22856 88.1256 10.0873L82.7418 11.0761C82.7631 11.2711 82.8118 11.5748 82.8868 11.9873C83.0406 12.8373 83.2856 13.5236 83.6243 14.0473C83.9631 14.5711 84.3443 14.9261 84.7681 15.1148C85.1906 15.3023 85.6193 15.3573 86.0543 15.2773C87.0993 15.0836 87.8506 14.4136 88.3031 13.2648ZM82.7206 7.95606C82.5243 8.58356 82.4956 9.50356 82.6356 10.7148L85.6431 10.1623C85.4843 9.13981 85.2343 8.31856 84.8906 7.69606C84.5468 7.07481 84.1518 6.80481 83.7056 6.88606C83.2456 6.97106 82.9168 7.32731 82.7206 7.95606Z" fill="#00ADBD"/>
<path d="M101.438 14.5088C101.629 14.7775 101.958 14.9025 102.426 14.8863L102.439 15.2987C102.037 15.2738 101.633 15.2688 101.231 15.2838C100.076 15.325 99.1318 15.4512 98.3993 15.66L98.3393 13.9725C97.9393 15.1662 97.1168 15.785 95.8718 15.83C94.6518 15.875 93.6668 15.4613 92.9143 14.5913C92.1631 13.7225 91.7606 12.3837 91.7093 10.5787C91.6681 9.4275 91.8181 8.45 92.1606 7.645C92.5018 6.84 92.9931 6.22625 93.6343 5.8025C94.2768 5.38125 95.0181 5.15375 95.8606 5.12375C96.8081 5.09 97.5368 5.31125 98.0481 5.79125L97.9293 2.45625C97.9081 1.855 97.7981 1.42 97.6018 1.15125C97.4031 0.883749 97.0768 0.757499 96.6231 0.773749L96.6081 0.362501C97.0243 0.386251 97.4281 0.39125 97.8168 0.3775C98.9456 0.33625 99.8893 0.21 100.648 0L101.119 13.2037C101.141 13.805 101.246 14.2413 101.438 14.5088ZM97.7618 14.4438C98.0806 14.1175 98.2643 13.6862 98.3093 13.1475L98.0656 6.28125C97.7256 5.84875 97.2443 5.6425 96.6206 5.66625C95.9331 5.69125 95.4156 6.11 95.0668 6.92C94.7193 7.73125 94.5806 8.92875 94.6493 10.51C94.6931 12.1063 94.8868 13.2512 95.2293 13.9462C95.5731 14.64 96.0418 14.9775 96.6393 14.9563C96.851 14.9494 97.0593 14.9005 97.252 14.8126C97.4446 14.7246 97.6179 14.5992 97.7618 14.4438Z" fill="#00ADBD"/>
<path d="M108.789 14.0839C108.743 14.6176 108.806 14.9939 108.977 15.2126C109.147 15.4314 109.458 15.5614 109.911 15.6001L109.876 16.0101C109.019 15.8955 108.161 15.7946 107.302 15.7076C106.401 15.6433 105.5 15.5907 104.598 15.5501L104.633 15.1401C105.099 15.1801 105.431 15.1076 105.631 14.9214C105.828 14.7364 105.951 14.3751 105.997 13.8401L106.526 7.67888C106.578 7.08013 106.524 6.63513 106.367 6.34513C106.209 6.05638 105.897 5.89013 105.432 5.85013L105.467 5.44013C105.878 5.51513 106.278 5.57013 106.666 5.60263C107.817 5.70388 108.768 5.69513 109.522 5.57638L108.789 14.0839ZM109.678 1.12638C109.972 1.42138 110.098 1.80388 110.058 2.27388C110.017 2.74263 109.828 3.09763 109.488 3.33763C109.147 3.57763 108.707 3.67263 108.163 3.62638C107.621 3.57888 107.201 3.40888 106.907 3.11263C106.613 2.81763 106.487 2.43638 106.527 1.96638C106.567 1.49638 106.757 1.14263 107.097 0.902629C107.437 0.662629 107.879 0.567631 108.422 0.613881C108.964 0.660131 109.383 0.83263 109.678 1.12638Z" fill="#00ADBD"/>
<path d="M120.816 15.0314L121.137 15.2176C120.726 15.9899 120.106 16.631 119.348 17.0676C118.576 17.5176 117.699 17.6451 116.719 17.4464C115.371 17.1751 114.384 16.5251 113.761 15.4976C113.138 14.4701 112.996 13.1101 113.333 11.4151C113.677 9.68262 114.368 8.44388 115.404 7.69888C116.439 6.95388 117.663 6.72512 119.077 7.01012C121.471 7.49512 122.383 9.16012 121.817 12.0101L116.451 10.9251C116.399 11.1139 116.333 11.4151 116.252 11.8264C116.083 12.6726 116.061 13.4026 116.183 14.0151C116.306 14.6276 116.531 15.0989 116.854 15.4326C117.179 15.7651 117.558 15.9764 117.991 16.0626C119.033 16.2726 119.976 15.9289 120.816 15.0314ZM117.576 8.01888C117.162 8.53013 116.799 9.37388 116.484 10.5514L119.483 11.1576C119.709 10.1501 119.778 9.29138 119.688 8.58513C119.596 7.88013 119.328 7.48138 118.883 7.39138C118.423 7.29888 117.988 7.50888 117.576 8.01888Z" fill="#00ADBD"/>
<path d="M134.936 12.5513C135.061 12.8613 135.101 13.2163 135.057 13.6163C135.012 14.0176 134.879 14.5313 134.658 15.1601L132.906 20.1376C132.727 20.6438 132.694 21.0238 132.804 21.2788C132.914 21.5338 133.184 21.7376 133.612 21.8901L133.476 22.2788C132.681 21.9531 131.882 21.6397 131.078 21.3388C130.278 21.0668 129.474 20.8068 128.666 20.5588L128.803 20.1701C129.171 20.3013 129.461 20.2976 129.674 20.1588C129.888 20.0201 130.084 19.6976 130.262 19.1926L132.287 13.4376C132.464 12.9326 132.517 12.5201 132.443 12.2013C132.368 11.8838 132.118 11.6476 131.691 11.4951C131.188 11.3151 130.687 11.3688 130.187 11.6551C129.687 11.9413 129.331 12.3863 129.117 12.9901L127.307 18.1338C127.128 18.6401 127.079 19.0138 127.159 19.2576C127.238 19.5013 127.462 19.6901 127.829 19.8213L127.692 20.2101C126.947 19.9009 126.198 19.6046 125.443 19.3213C124.594 19.0324 123.74 18.7553 122.883 18.4901L123.021 18.1013C123.461 18.2588 123.801 18.2726 124.039 18.1426C124.278 18.0126 124.487 17.6951 124.664 17.1888L126.716 11.3613C126.914 10.7938 126.974 10.3501 126.894 10.0288C126.813 9.70883 126.553 9.47008 126.113 9.31258L126.251 8.92383C126.629 9.10133 127.002 9.25508 127.369 9.38633C128.459 9.77508 129.382 10.0088 130.141 10.0851L129.554 11.7501C130.509 10.8001 131.714 10.5851 133.171 11.1063C134.099 11.4413 134.688 11.9213 134.936 12.5513Z" fill="#00ADBD"/>
<path d="M143.374 15.9986L145.426 17.0436L145.249 17.3949L143.198 16.3486L139.648 23.4274C139.472 23.7786 139.408 24.0574 139.457 24.2649C139.506 24.4724 139.662 24.6449 139.929 24.7799C140.427 25.0336 140.998 24.8836 141.638 24.3311L141.856 24.6399C140.811 25.6186 139.716 25.8161 138.569 25.2311C137.804 24.8411 137.324 24.3474 137.129 23.7499C137.009 23.3703 136.997 22.9645 137.096 22.5786C137.193 22.1661 137.403 21.6386 137.726 20.9961L140.694 15.0749L139.234 14.3311L139.411 13.9799L140.871 14.7249L142.029 12.4111C142.992 12.9011 143.919 13.1399 144.813 13.1261L143.374 15.9986Z" fill="#00ADBD"/>
<path d="M152.569 21.3849C152.849 21.7174 153.039 22.0124 153.139 22.2649C153.179 22.3878 153.255 22.4955 153.358 22.5737C153.457 22.6387 153.573 22.6412 153.712 22.5849C153.882 22.4999 154.03 22.3762 154.143 22.2237L154.486 22.4487C154.079 22.9787 153.434 23.9287 152.546 25.2987L152.204 25.0737C152.574 24.2862 152.752 23.5387 152.737 22.8324C152.721 22.1262 152.398 21.5649 151.768 21.1512C151.442 20.9362 151.113 20.8512 150.779 20.8987C150.447 20.9449 150.174 21.1324 149.961 21.4624C149.719 21.8349 149.637 22.2374 149.713 22.6712C149.789 23.1037 149.969 23.6874 150.253 24.4224L150.502 25.0787C150.838 26.0199 151.036 26.7899 151.096 27.3924C151.156 27.9949 150.993 28.5912 150.609 29.1837C150.297 29.6662 149.882 30.0012 149.363 30.1912C148.827 30.3821 148.249 30.4231 147.692 30.3099C147.069 30.1887 146.477 29.9425 145.952 29.5862C145.353 29.1937 144.918 28.7412 144.643 28.2324C144.482 27.9437 144.306 27.6633 144.117 27.3924C144.029 27.2887 143.911 27.2612 143.762 27.3112C143.613 27.3624 143.449 27.4762 143.272 27.6562L142.929 27.4312C143.377 26.8349 144.108 25.7549 145.124 24.1874L145.467 24.4124C144.377 26.5712 144.458 28.0624 145.708 28.8862C146.023 29.0937 146.354 29.1749 146.702 29.1299C147.049 29.0849 147.351 28.8649 147.606 28.4712C147.804 28.1649 147.914 27.8462 147.934 27.5162C147.955 27.1863 147.921 26.8553 147.836 26.5362C147.706 26.0708 147.563 25.6094 147.407 25.1524C147.22 24.5958 147.054 24.0325 146.908 23.4637C146.808 23.0436 146.775 22.6104 146.809 22.1799C146.843 21.7324 146.992 21.3074 147.254 20.9012C147.709 20.1999 148.339 19.8262 149.146 19.7787C149.952 19.7324 150.747 19.9662 151.528 20.4812C151.943 20.7499 152.288 21.0524 152.569 21.3849Z" fill="#00ADBD"/>
<path d="M18.0856 73.1714C18.0856 74.0752 17.3593 74.8077 16.4631 74.8077C16.031 74.8057 15.6174 74.6322 15.3131 74.3254C15.0089 74.0186 14.8389 73.6035 14.8406 73.1714C14.8406 72.2677 15.5668 71.5352 16.4631 71.5352C17.3593 71.5352 18.0856 72.2677 18.0856 73.1714Z" fill="#00ADBD"/>
<path d="M118.708 186.051C118.708 186.955 117.982 187.688 117.086 187.688C116.654 187.686 116.24 187.512 115.936 187.205C115.631 186.898 115.461 186.483 115.463 186.051C115.463 185.148 116.189 184.415 117.086 184.415C117.982 184.415 118.708 185.148 118.708 186.051Z" fill="#00ADBD"/>
<path d="M163.339 36.3623C163.339 37.2661 162.613 37.9986 161.717 37.9986C161.285 37.9966 160.871 37.8231 160.567 37.5163C160.263 37.2095 160.093 36.7944 160.094 36.3623C160.094 35.4586 160.82 34.7261 161.717 34.7261C162.613 34.7261 163.339 35.4586 163.339 36.3623Z" fill="#00ADBD"/>
<path d="M35.9381 161.513C35.9381 162.416 35.2119 163.149 34.3156 163.149C33.8835 163.147 33.4699 162.974 33.1657 162.667C32.8614 162.36 32.6915 161.945 32.6931 161.513C32.6931 160.609 33.4194 159.876 34.3156 159.876C35.2119 159.876 35.9381 160.609 35.9381 161.513Z" fill="#00ADBD"/>
</g>
<defs>
<clipPath id="clip0_287_48">
<rect width="200" height="200" fill="white"/>
</clipPath>
</defs>
</svg>
