<svg width="200" height="200" viewBox="0 0 200 200" fill="none" xmlns="http://www.w3.org/2000/svg">
<path d="M63.4685 140.512V102.836H86.6952L89.396 100.135L86.6952 97.4344H63.4685V60.9738C72.3811 61.5139 80.4834 65.0249 86.6952 70.5615L89.396 66.5104L86.6952 63.6745C80.0783 58.9482 71.976 55.9773 63.4685 55.5722V41.9332C63.4685 40.4478 62.2531 39.2324 60.7677 39.2324C59.2823 39.2324 58.0669 40.4478 58.0669 41.9332V55.5722C35.5153 56.9226 17.285 74.8828 15.6646 97.2993H2.70079C1.21535 97.2993 0 98.5147 0 100C0 101.486 1.21535 102.701 2.70079 102.701H15.5295C16.6098 125.793 34.9752 144.428 58.0669 145.778V158.067C58.0669 159.552 59.2823 160.768 60.7677 160.768C62.2531 160.768 63.4685 159.552 63.4685 158.067V145.778C72.111 145.238 80.0783 142.267 86.6952 137.676L89.396 134.705L86.6952 130.789C80.3484 136.326 72.246 139.837 63.4685 140.512ZM58.0669 60.9738V97.2993H21.0661C22.6866 77.8537 38.3512 62.3242 58.0669 60.9738ZM20.9311 102.701H58.0669V140.377C37.9461 139.162 21.8764 122.957 20.9311 102.701Z" fill="#00ADBD"/>
<path d="M197.428 39.2324H89.3961C87.9107 39.2324 86.6953 40.4478 86.6953 41.9332V143.888C86.6953 153.206 94.2575 160.768 103.575 160.768H168.394C177.712 160.768 185.274 153.206 185.274 143.888V67.1856C185.274 63.9446 186.354 60.8387 188.245 58.273L199.453 43.5537C200.128 42.7434 200.128 41.6631 199.723 40.7179C199.453 39.9076 198.508 39.2324 197.428 39.2324ZM179.872 67.1856V67.5907H148.813C147.328 67.5907 146.113 68.806 146.113 70.2915C146.113 71.7769 147.328 72.9922 148.813 72.9922H179.872V82.445H165.018C163.533 82.445 162.317 83.6604 162.317 85.1458C162.317 86.6312 163.533 87.8466 165.018 87.8466H179.872V97.2993H148.813C147.328 97.2993 146.113 98.5147 146.113 100C146.113 101.486 147.328 102.701 148.813 102.701H179.872V112.154H165.018C163.533 112.154 162.317 113.369 162.317 114.854C162.317 116.34 163.533 117.555 165.018 117.555H179.872V127.008H148.813C147.328 127.008 146.113 128.223 146.113 129.709C146.113 131.194 147.328 132.41 148.813 132.41H179.872V140.512H165.018C163.533 140.512 162.317 141.727 162.317 143.213C162.317 144.698 163.533 145.913 165.018 145.913H179.737C178.792 151.315 174.066 155.366 168.529 155.366H103.71C97.3634 155.366 92.2319 150.235 92.2319 143.888V44.634H192.026L184.059 54.897C181.358 58.543 179.872 62.8643 179.872 67.1856Z" fill="#034872" fill-opacity="0.866667"/>
</svg>
