<svg width="2996" height="150" viewBox="0 0 2996 150" fill="none" xmlns="http://www.w3.org/2000/svg">
<path d="M500 139.816C375 139.816 375 0 250 0C125 0 125 139.816 0 139.816V150H500V139.816Z" fill="#F7F5F1"/>
<path d="M1000 139.816C875 139.816 875 0 750 0C625 0 625 139.816 500 139.816V150H1000V139.816Z" fill="#F7F5F1"/>
<path d="M1496 139.816C1371 139.816 1371 0 1246 0C1121 0 1121 139.816 996 139.816V150H1496V139.816Z" fill="#F7F5F1"/>
<path d="M1996 139.816C1871 139.816 1871 0 1746 0C1621 0 1621 139.816 1496 139.816V150H1996V139.816Z" fill="#F7F5F1"/>
<path d="M2496 139.816C2371 139.816 2371 0 2246 0C2121 0 2121 139.816 1996 139.816V150H2496V139.816Z" fill="#F7F5F1"/>
<path d="M2996 139.816C2871 139.816 2871 0 2746 0C2621 0 2621 139.816 2496 139.816V150H2996V139.816Z" fill="#F7F5F1"/>
</svg>
