<svg width="2496" height="100" viewBox="0 0 2496 100" fill="none" xmlns="http://www.w3.org/2000/svg">
<path d="M500 93.2106C375 93.2106 375 0 250 0C125 0 125 93.2106 0 93.2106V100H500V93.2106Z" fill="#F7F5F2"/>
<path d="M1000 93.2106C875 93.2106 875 0 750 0C625 0 625 93.2106 500 93.2106V100H1000V93.2106Z" fill="#F7F5F2"/>
<path d="M1496 93.2106C1371 93.2106 1371 0 1246 0C1121 0 1121 93.2106 996 93.2106V100H1496V93.2106Z" fill="#F7F5F2"/>
<path d="M1996 93.2106C1871 93.2106 1871 0 1746 0C1621 0 1621 93.2106 1496 93.2106V100H1996V93.2106Z" fill="#F7F5F2"/>
<path d="M2496 93.2106C2371 93.2106 2371 0 2246 0C2121 0 2121 93.2106 1996 93.2106V100H2496V93.2106Z" fill="#F7F5F2"/>
</svg>
